<?xml version="1.0" encoding="iso-8859-1"?>
<!-- Generator: Adobe Illustrator 19.0.0, SVG Export Plug-In . SVG Version: 6.00 Build 0)  -->
<svg version="1.1" id="Capa_1" xmlns="http://www.w3.org/2000/svg" xmlns:xlink="http://www.w3.org/1999/xlink" x="0px" y="0px"
	 viewBox="0 0 512.002 512.002" style="enable-background:new 0 0 512.002 512.002;" xml:space="preserve">
<g>
	<g>
		<path d="M463.649,284.897c-37.005,11.213-62.779,30.239-80.735,51.231c17.993-87.773,46.982-149.256,47.526-150.396l20.604-42.925
			l-41.512,23.321c-32.777,18.414-60.342,46.063-81.929,82.18c-1.886,3.157-3.721,6.388-5.516,9.673
			c4.447-23.721,9.17-44.896,13.645-62.991c16.544-66.904,33.311-107.578,33.596-108.263l24.148-57.848l-47.75,40.613
			c-34.881,29.666-63.882,69.332-86.195,117.894c-17.629,38.367-31.155,82.373-40.202,130.797
			c-0.698,3.735-1.357,7.434-1.982,11.097c-8.834-30.253-20.382-57.429-34.453-80.971c-21.587-36.117-49.152-63.767-81.929-82.18
			l-41.44-23.276l20.529,42.873c0.421,0.879,28.997,61.394,47.06,148.144c-17.856-20.092-43.091-38.163-78.762-48.972L0,270.245
			l32.484,38.695c0.438,0.521,43.724,53.307,43.724,159.157v15.027h359.586v-15.027c0-54.875,11.897-95.232,21.877-119.423
			c10.684-25.899,21.517-39.328,21.878-39.772l32.452-38.657L463.649,284.897z M105.988,453.07
			c-1.95-53.233-14.017-93.437-25.873-120.659c24.305,16.211,41.725,39.355,51.994,69.183c5.738,16.665,8.126,32.49,9.066,44.384
			c0.089,2.358,0.165,4.721,0.226,7.093H105.988z M206.622,453.069h-34.926c-0.097-2.881-0.27-6.088-0.547-9.56
			c-2.951-73.425-18.432-139.231-31.639-183.251c-3.882-12.942-7.758-24.696-11.408-35.094
			c10.586,11.145,20.207,23.913,28.799,38.24c15.402,25.68,27.572,56.394,36.173,91.286c9.964,40.425,12.778,77.235,13.548,97.254
			C206.622,452.325,206.622,452.701,206.622,453.069z M236.768,453.069L236.768,453.069c-0.017-0.522-0.035-1.055-0.054-1.6
			c0.101-24.058,1.825-72.781,12.279-128.42c8.62-45.885,21.407-87.418,38-123.449c9.202-19.978,19.59-38.272,31.099-54.787
			c-3.655,12.575-7.502,26.698-11.356,42.241c-15.095,60.881-32.964,155.447-34.477,266.015H236.768z M303.831,453.069
			c0.708-19.75,3.44-57.194,13.591-98.379c8.6-34.893,20.77-65.606,36.172-91.286c8.591-14.327,18.213-27.094,28.798-38.24
			c-3.65,10.398-7.525,22.152-11.406,35.094c-13.778,45.924-30.04,115.551-31.959,192.811H303.831z M406.011,453.069h-35.613
			c0.492-12.223,2.525-31.238,9.492-51.477c10.27-29.827,27.69-52.971,51.995-69.183
			C420.029,359.633,407.962,399.838,406.011,453.069z"/>
	</g>
</g>
<g>
</g>
<g>
</g>
<g>
</g>
<g>
</g>
<g>
</g>
<g>
</g>
<g>
</g>
<g>
</g>
<g>
</g>
<g>
</g>
<g>
</g>
<g>
</g>
<g>
</g>
<g>
</g>
<g>
</g>
</svg>
