<?xml version="1.0" encoding="UTF-8"?>
<svg width="26px" height="30px" viewBox="0 0 26 30" version="1.1" xmlns="http://www.w3.org/2000/svg" xmlns:xlink="http://www.w3.org/1999/xlink">
    <!-- Generator: Sketch 48.2 (47327) - http://www.bohemiancoding.com/sketch -->
    <title>Group</title>
    <desc>Created with Sketch.</desc>
    <defs>
        <linearGradient x1="50%" y1="0%" x2="50%" y2="100%" id="linearGradient-1">
            <stop stop-color="#DAEBFE" offset="0%"></stop>
            <stop stop-color="#57D69C" offset="100%"></stop>
        </linearGradient>
    </defs>
    <g id="Page-1" stroke="none" stroke-width="1" fill="none" fill-rule="evenodd">
        <g id="Group" fill="url(#linearGradient-1)" fill-rule="nonzero">
            <g id="grass" transform="translate(4.453125, 5.097656)">
                <path d="M11.8308309,13.3569393 C12.1651259,7.99749563 14.1949464,3.76349781 14.1949464,3.76349781 C10.1760379,6.02368078 9.44326057,11.573189 9.31347473,13.8376723 C9.50083168,5.78606085 11.9135815,0 11.9135815,0 C7.1805217,4.02974513 6.80289162,11.9209867 6.79605583,14.1962681 C6.72305717,12.2260316 6.14894531,6.15438743 1.89758881,3.76349781 C1.89758881,3.76349781 4.07243454,8.29987248 4.29048981,13.9252495 C4.1696093,12.4115761 3.48038658,9.41593277 0,8.36017207 C0,8.36017207 1.80696762,10.5148543 1.80696762,14.8242188 L14.2477199,14.8242188 C14.2477199,10.5148543 16.0546875,8.36017207 16.0546875,8.36017207 C12.9695535,9.29602417 12.0778599,11.7559083 11.8308309,13.3569393 Z" id="Shape"></path>
            </g>
            <g id="shield">
                <path d="M24.6764062,3.56736328 L12.9089062,0.0370898438 C12.7443164,-0.0123632812 12.5685937,-0.0123632812 12.4038281,0.0370898438 L0.636210938,3.56736328 C0.264433594,3.67886719 0.00984375,4.02105469 0.00984375,4.40917969 L0.00984375,17.3534766 C0.00984375,19.0371094 0.69140625,20.7605859 2.03560547,22.4760352 C3.06228516,23.7861914 4.48259766,25.1017969 6.25716797,26.3863477 C9.23824219,28.5442383 12.1736719,29.8679883 12.2971875,29.9232422 C12.4114453,29.9743945 12.5338477,30 12.6563086,30 C12.7787109,30 12.9011719,29.9744531 13.0154297,29.9232422 C13.1389453,29.8679883 16.0743164,28.5442383 19.0553906,26.3863477 C20.8299023,25.1017969 22.2502148,23.7861914 23.2768945,22.4760352 C24.6210938,20.7606445 25.3026562,19.037168 25.3026562,17.3534766 L25.3026562,4.40917969 C25.3027148,4.02105469 25.0481836,3.67886719 24.6764062,3.56736328 Z M23.5449023,17.3534766 C23.5449023,20.3330859 20.5552734,23.1269531 18.0472852,24.9461133 C15.7988086,26.5769531 13.5185156,27.7341797 12.6563672,28.1499023 C11.7942188,27.7341797 9.51386719,26.5769531 7.26539063,24.9461133 C4.75734375,23.1269531 1.76765625,20.3330859 1.76765625,17.3534766 L1.76765625,5.06308594 L12.6563086,1.79648438 L23.5449023,5.06308594 L23.5449023,17.3534766 Z" id="Shape"></path>
            </g>
        </g>
    </g>
</svg>