<?xml version="1.0" encoding="UTF-8"?>
<svg width="611px" height="126px" viewBox="0 0 611 126" version="1.1" xmlns="http://www.w3.org/2000/svg" xmlns:xlink="http://www.w3.org/1999/xlink">
    <!-- Generator: Sketch 48.2 (47327) - http://www.bohemiancoding.com/sketch -->
    <title>ioes</title>
    <desc>Created with Sketch.</desc>
    <defs></defs>
    <g id="Page-1" stroke="none" stroke-width="1" fill="none" fill-rule="evenodd">
        <g id="ioes">
            <circle id="Oval" fill="#FFFFFF" cx="62.75" cy="62.75" r="62.75"></circle>
            <path d="M403,98.357 L415.786,98.357 L415.786,26.084 L403,26.084 L403,98.357 Z M454.799,99.657 C471.738,99.657 482.01,87.196 482.01,72.135 C482.01,57.182 471.738,44.721 454.799,44.721 C438.079,44.721 427.698,57.182 427.698,72.135 C427.698,87.196 438.079,99.657 454.799,99.657 Z M454.799,89.58 C445.073,89.58 439.609,81.453 439.609,72.135 C439.609,62.924 445.073,54.798 454.799,54.798 C464.634,54.798 470.099,62.924 470.099,72.135 C470.099,81.453 464.634,89.58 454.799,89.58 Z M543.863,98.357 L543.863,87.196 L506.707,87.196 L506.707,67.15 L543.098,67.15 L543.098,55.99 L506.707,55.99 L506.707,37.244 L543.863,37.244 L543.863,26.084 L493.922,26.084 L493.922,98.357 L543.863,98.357 Z M581.892,99.657 C601.563,99.657 610.086,89.363 610.086,77.336 C610.086,50.355 567.686,58.699 567.686,45.262 C567.686,39.845 572.494,36.269 580.035,36.269 C587.684,36.269 595.443,38.87 601.125,44.504 L608.447,35.077 C601.672,28.576 592.493,25 581.127,25 C565.173,25 554.572,34.21 554.572,46.129 C554.572,72.785 597.082,63.358 597.082,78.528 C597.082,83.295 592.93,88.388 582.439,88.388 C572.276,88.388 564.407,83.729 559.38,78.419 L552.277,88.171 C558.725,94.998 568.451,99.657 581.892,99.657 Z" id="Fill-1-Copy" fill="#FFFFFF" fill-rule="nonzero"></path>
            <path d="M143.185914,77.894 C142.892914,75.455 143.033914,71.901 143.033914,70.12 L146.846914,28.172 L160.858914,28.172 L157.046914,70.491 C156.231914,79.676 159.902914,86.178 169.288914,86.178 C178.814914,86.178 183.876914,79.602 184.680914,71.456 L188.721914,28.172 L202.799914,28.172 L198.910914,70.873 C197.302914,87.365 186.157914,99.648 168.115914,99.648 C154.037914,99.648 144.945914,90.781 143.185914,77.894 Z M208.512914,63.692 C210.348914,43.572 224.285914,26.846 248.258914,26.846 C254.635914,26.846 260.718914,28.256 266.746914,32.107 L265.128914,48.748 C259.631914,41.567 253.027914,40.464 246.944914,40.464 C231.986914,40.464 223.774914,50.604 222.601914,63.406 C221.493914,75.974 228.097914,86.114 242.621914,86.114 C248.932914,86.114 255.601914,84.332 262.640914,77.459 L261.098914,94.546 C254.276914,98.173 247.900914,99.796 241.524914,99.796 C217.680914,99.796 206.763914,82.55 208.512914,63.692 Z M278.033914,28.172 L292.034914,28.172 L286.896914,85.138 L306.992914,85.138 C308.459914,85.138 313.227914,85.074 314.542914,85.074 C314.476914,85.743 313.227914,98.163 313.227914,98.163 L271.645914,98.163 L278.033914,28.172 Z M354.733914,25 L353.712914,25 L315.291914,98.173 L330.249914,98.173 L335.593914,87.068 L362.728914,87.068 L366.106914,98.173 L380.912914,98.173 L354.733914,25 Z M351.148914,54.295 C351.594914,53.33 351.952914,52.078 352.169914,51.41 L352.398914,51.41 C352.463914,52.301 352.615914,53.34 352.908914,54.369 C353.636914,57.551 359.143914,75.242 359.143914,75.242 L341.383914,75.242 C341.383914,75.242 350.920914,54.815 351.148914,54.295 Z" id="Fill-3-Copy" fill="#1E4B87" fill-rule="nonzero"></path>
            <path d="M62.762,123.281 C29.326,123.281 2.224,96.188 2.224,62.755 C2.224,29.316 29.326,2.198 62.762,2.198 C96.196,2.198 123.325,29.316 123.325,62.755 C123.325,96.188 96.196,123.281 62.762,123.281 M62.762,0 C28.106,0 0,28.098 0,62.755 C0,97.392 28.106,125.501 62.762,125.501 C97.419,125.501 125.516,97.392 125.516,62.755 C125.516,28.098 97.419,0 62.762,0" id="Fill-4" fill="#FFB300" fill-rule="nonzero"></path>
            <path d="M54.3564748,114.076714 C27.1604748,114.076714 5.11647484,92.0177135 5.11647484,64.8147135 C5.11647484,37.6207135 27.1604748,15.5937135 54.3564748,15.5937135 C81.5574748,15.5937135 103.611475,37.6207135 103.611475,64.8147135 C103.611475,92.0177135 81.5574748,114.076714 54.3564748,114.076714 M117.974475,47.2997135 C109.234475,16.4227135 77.1444748,-1.51728645 46.2984748,7.2037135 C15.4254748,15.9307135 -2.52552516,48.0237135 6.20847484,78.8757135 C14.9254748,109.751714 47.0144748,127.699714 77.8864748,118.961714 C108.728475,110.239714 126.690475,78.1617135 117.974475,47.2997135" id="Fill-5" fill="#2684BB" fill-rule="nonzero"></path>
            <path d="M60.565,97.373 C42.28,97.373 27.455,82.545 27.455,64.257 C27.455,45.986 42.28,31.163 60.565,31.163 C78.872,31.163 93.695,45.986 93.695,64.257 C93.695,82.545 78.872,97.373 60.565,97.373 M54.348,17 C28.212,17 7,38.205 7,64.376 C7,90.523 28.212,111.721 54.348,111.721 C80.519,111.721 101.717,90.523 101.717,64.376 C101.717,38.205 80.519,17 54.348,17" id="Fill-6" fill="#067A3E" fill-rule="nonzero"></path>
        </g>
    </g>
</svg>