<?xml version="1.0" encoding="UTF-8"?>
<svg width="126px" height="126px" viewBox="0 0 126 126" version="1.1" xmlns="http://www.w3.org/2000/svg" xmlns:xlink="http://www.w3.org/1999/xlink">
    <!-- Generator: Sketch 48.2 (47327) - http://www.bohemiancoding.com/sketch -->
    <title>ioes-alt</title>
    <desc>Created with Sketch.</desc>
    <defs></defs>
    <g id="Page-1" stroke="none" stroke-width="1" fill="none" fill-rule="evenodd">
        <g id="ioes-alt" fill-rule="nonzero">
            <circle id="Oval" fill="#FFFFFF" cx="62.75" cy="62.75" r="62.75"></circle>
            <path d="M62.762,123.281 C29.326,123.281 2.224,96.188 2.224,62.755 C2.224,29.316 29.326,2.198 62.762,2.198 C96.196,2.198 123.325,29.316 123.325,62.755 C123.325,96.188 96.196,123.281 62.762,123.281 M62.762,0 C28.106,0 0,28.098 0,62.755 C0,97.392 28.106,125.501 62.762,125.501 C97.419,125.501 125.516,97.392 125.516,62.755 C125.516,28.098 97.419,0 62.762,0" id="Fill-4" fill="#FFB300"></path>
            <path d="M54.3564748,114.076714 C27.1604748,114.076714 5.11647484,92.0177135 5.11647484,64.8147135 C5.11647484,37.6207135 27.1604748,15.5937135 54.3564748,15.5937135 C81.5574748,15.5937135 103.611475,37.6207135 103.611475,64.8147135 C103.611475,92.0177135 81.5574748,114.076714 54.3564748,114.076714 M117.974475,47.2997135 C109.234475,16.4227135 77.1444748,-1.51728645 46.2984748,7.2037135 C15.4254748,15.9307135 -2.52552516,48.0237135 6.20847484,78.8757135 C14.9254748,109.751714 47.0144748,127.699714 77.8864748,118.961714 C108.728475,110.239714 126.690475,78.1617135 117.974475,47.2997135" id="Fill-5" fill="#2684BB"></path>
            <path d="M60.565,97.373 C42.28,97.373 27.455,82.545 27.455,64.257 C27.455,45.986 42.28,31.163 60.565,31.163 C78.872,31.163 93.695,45.986 93.695,64.257 C93.695,82.545 78.872,97.373 60.565,97.373 M54.348,17 C28.212,17 7,38.205 7,64.376 C7,90.523 28.212,111.721 54.348,111.721 C80.519,111.721 101.717,90.523 101.717,64.376 C101.717,38.205 80.519,17 54.348,17" id="Fill-6" fill="#067A3E"></path>
        </g>
    </g>
</svg>