<?xml version="1.0" encoding="UTF-8"?>
<svg width="902px" height="140px" viewBox="0 0 902 140" version="1.1" xmlns="http://www.w3.org/2000/svg" xmlns:xlink="http://www.w3.org/1999/xlink">
    <!-- Generator: Sketch 48.2 (47327) - http://www.bohemiancoding.com/sketch -->
    <title>ioes-alt-caption</title>
    <desc>Created with Sketch.</desc>
    <defs></defs>
    <g id="Page-1" stroke="none" stroke-width="1" fill="none" fill-rule="evenodd">
        <g id="ioes-alt-caption">
            <ellipse id="Oval" fill="#FFFFFF" fill-rule="nonzero" cx="73.3221461" cy="69.7349141" rx="73.1751957" ry="69.7349141"></ellipse>
            <text id="Institute-of-the-Env" font-family="Helvetica" font-size="36" font-weight="normal" fill="#FFFFFF">
                <tspan x="166" y="131">Institute of the </tspan>
                <tspan x="402.144531" y="131" font-family="Helvetica-Bold, Helvetica" font-weight="bold">Environment &amp; Sustainability</tspan>
            </text>
            <path d="M426,85.357 L438.786,85.357 L438.786,13.084 L426,13.084 L426,85.357 Z M477.799,86.657 C494.738,86.657 505.01,74.196 505.01,59.135 C505.01,44.182 494.738,31.721 477.799,31.721 C461.079,31.721 450.698,44.182 450.698,59.135 C450.698,74.196 461.079,86.657 477.799,86.657 Z M477.799,76.58 C468.073,76.58 462.609,68.453 462.609,59.135 C462.609,49.924 468.073,41.798 477.799,41.798 C487.634,41.798 493.099,49.924 493.099,59.135 C493.099,68.453 487.634,76.58 477.799,76.58 Z M566.863,85.357 L566.863,74.196 L529.707,74.196 L529.707,54.15 L566.098,54.15 L566.098,42.99 L529.707,42.99 L529.707,24.244 L566.863,24.244 L566.863,13.084 L516.922,13.084 L516.922,85.357 L566.863,85.357 Z M604.892,86.657 C624.563,86.657 633.086,76.363 633.086,64.336 C633.086,37.355 590.686,45.699 590.686,32.262 C590.686,26.845 595.494,23.269 603.035,23.269 C610.684,23.269 618.443,25.87 624.125,31.504 L631.447,22.077 C624.672,15.576 615.493,12 604.127,12 C588.173,12 577.572,21.21 577.572,33.129 C577.572,59.785 620.082,50.358 620.082,65.528 C620.082,70.295 615.93,75.388 605.439,75.388 C595.276,75.388 587.407,70.729 582.38,65.419 L575.277,75.171 C581.725,81.998 591.451,86.657 604.892,86.657 Z" id="Fill-1-Copy" fill="#FFFFFF" fill-rule="nonzero"></path>
            <path d="M166.185914,64.894 C165.892914,62.455 166.033914,58.901 166.033914,57.12 L169.846914,15.172 L183.858914,15.172 L180.046914,57.491 C179.231914,66.676 182.902914,73.178 192.288914,73.178 C201.814914,73.178 206.876914,66.602 207.680914,58.456 L211.721914,15.172 L225.799914,15.172 L221.910914,57.873 C220.302914,74.365 209.157914,86.648 191.115914,86.648 C177.037914,86.648 167.945914,77.781 166.185914,64.894 Z M231.512914,50.692 C233.348914,30.572 247.285914,13.846 271.258914,13.846 C277.635914,13.846 283.718914,15.256 289.746914,19.107 L288.128914,35.748 C282.631914,28.567 276.027914,27.464 269.944914,27.464 C254.986914,27.464 246.774914,37.604 245.601914,50.406 C244.493914,62.974 251.097914,73.114 265.621914,73.114 C271.932914,73.114 278.601914,71.332 285.640914,64.459 L284.098914,81.546 C277.276914,85.173 270.900914,86.796 264.524914,86.796 C240.680914,86.796 229.763914,69.55 231.512914,50.692 Z M301.033914,15.172 L315.034914,15.172 L309.896914,72.138 L329.992914,72.138 C331.459914,72.138 336.227914,72.074 337.542914,72.074 C337.476914,72.743 336.227914,85.163 336.227914,85.163 L294.645914,85.163 L301.033914,15.172 Z M377.733914,12 L376.712914,12 L338.291914,85.173 L353.249914,85.173 L358.593914,74.068 L385.728914,74.068 L389.106914,85.173 L403.912914,85.173 L377.733914,12 Z M374.148914,41.295 C374.594914,40.33 374.952914,39.078 375.169914,38.41 L375.398914,38.41 C375.463914,39.301 375.615914,40.34 375.908914,41.369 C376.636914,44.551 382.143914,62.242 382.143914,62.242 L364.383914,62.242 C364.383914,62.242 373.920914,41.815 374.148914,41.295 Z" id="Fill-3-Copy" fill="#1E4B87" fill-rule="nonzero"></path>
            <path d="M73.3361398,137.003824 C34.3451303,137.003824 2.74044261,106.895011 2.74044261,69.7404706 C2.74044261,32.5792628 34.3451303,2.44266679 73.3361398,2.44266679 C112.324817,2.44266679 143.96099,32.5792628 143.96099,69.7404706 C143.96099,106.895011 112.324817,137.003824 73.3361398,137.003824 M73.3361398,0 C32.9224413,0 0.14695042,31.2256831 0.14695042,69.7404706 C0.14695042,108.233032 32.9224413,139.470939 73.3361398,139.470939 C113.751004,139.470939 146.516,108.233032 146.516,69.7404706 C146.516,31.2256831 113.751004,0 73.3361398,0" id="Fill-4" fill="#FFB300" fill-rule="nonzero"></path>
            <path d="M63.5341326,126.774978 C31.8198278,126.774978 6.11346911,102.260515 6.11346911,72.0294578 C6.11346911,41.808402 31.8198278,17.3295023 63.5341326,17.3295023 C95.254268,17.3295023 120.972288,41.808402 120.972288,72.0294578 C120.972288,102.260515 95.254268,126.774978 63.5341326,126.774978 M137.721537,52.5648041 C127.529486,18.2507811 90.1080985,-1.68618072 54.1373879,8.00558314 C18.1351916,17.7040149 -2.7981619,53.369395 7.38689243,87.6556351 C17.5521224,121.968547 54.9723431,141.9144 90.9733733,132.203744 C126.939419,122.510868 147.885601,86.8621574 137.721537,52.5648041" id="Fill-5" fill="#2684BB" fill-rule="nonzero"></path>
            <path d="M70.7741333,108.211917 C49.4512894,108.211917 32.163285,91.7333623 32.163285,71.4096633 C32.163285,51.1048567 49.4512894,34.6318586 70.7741333,34.6318586 C92.1226322,34.6318586 109.408304,51.1048567 109.408304,71.4096633 C109.408304,91.7333623 92.1226322,108.211917 70.7741333,108.211917 M63.5242498,18.8923273 C33.0460519,18.8923273 8.30992046,42.4577274 8.30992046,71.5419096 C8.30992046,100.59942 33.0460519,124.157041 63.5242498,124.157041 C94.0432625,124.157041 118.763068,100.59942 118.763068,71.5419096 C118.763068,42.4577274 94.0432625,18.8923273 63.5242498,18.8923273" id="Fill-6" fill="#067A3E" fill-rule="nonzero"></path>
        </g>
    </g>
</svg>